<svg height="30" viewBox="0 0 30 30" width="30" xmlns="http://www.w3.org/2000/svg">
    <g fill="#95989A" fill-rule="evenodd">
        <path
            d="M30 13.58v2.84h-2.949a12.136 12.136 0 0 1-10.63 10.631V30H13.58v-2.949a12.136 12.136 0 0 1-10.631-10.63H0V13.58h2.949a12.136 12.136 0 0 1 10.63-10.631V0h2.842v2.949c5.568.65 9.98 5.062 10.63 10.63H30zm-5.557 1.369a9.494 9.494 0 1 0-18.989 0 9.494 9.494 0 0 0 18.99 0z"
            fill="#95989A" />
        <path d="M20.23 14.887a5.342 5.342 0 1 1-10.685 0 5.342 5.342 0 0 1 10.685 0"
            fill="#95989A" />
    </g>
</svg>
