<svg xmlns="http://www.w3.org/2000/svg" width="9" height="8" viewBox="0 0 9 8">
    <path fill="#FFF" fill-rule="evenodd" d="M4.598.66A2.352 2.352 0 0 1 5.799.046c.27-.053.543-.06.815-.022.397.056.761.199 1.087.434.353.256.617.584.78.99.118.295.166.6.148.918a2.55 2.55 0 0 1-.181.748c-.124.329-.292.634-.49.92a10.5 10.5 0 0 1-.531.698c-.232.28-.472.555-.717.823a42.421 42.421 0 0 1-2.407 2.409c-.049.044-.033.05-.089.005a8.555 8.555 0 0 1-.401-.347A25.739 25.739 0 0 1 2.216 5.97c-.398-.445-.784-.9-1.144-1.377a7.74 7.74 0 0 1-.698-1.055 4.038 4.038 0 0 1-.164-.366 3.841 3.841 0 0 1-.13-.368A2.145 2.145 0 0 1 .583.77 2.307 2.307 0 0 1 1.875.05c.764-.144 1.455.025 2.06.52.127.103.239.222.338.352L4.31.97c.098-.107.187-.214.287-.31z"/>
</svg>
