<svg xmlns:xlink="http://www.w3.org/1999/xlink" height="36" viewBox="0 0 30 36"
    width="30" xmlns="http://www.w3.org/2000/svg">
    <g fill="none" fill-rule="evenodd" transform="translate(0 .24)">
        <path d="M20.42 9.792H8.727V8.67c.064-4.013 2.737-6.105 5.847-6.118 3.104.013 5.777 2.105 5.848 6.118v1.12zm1.406 9.041l-3.468-5.778 1.653-2.78 3.7.638 3.473 5.778-5.358 2.142zm1.531-9.041V8.67c0-2.471-.912-4.592-2.495-6.113C19.286 1.034 17.02.145 14.573.153c-2.45-.008-4.719.881-6.295 2.405C6.695 4.078 5.786 6.2 5.786 8.67v1.12H.006v24.626H29.14V9.792h-5.783z"
            fill="#ABA840"
            mask="url(#b)" />
    </g>
</svg>
